<svg xmlns="http://www.w3.org/2000/svg" width="439.507" height="292" viewBox="0 0 439.507 292"><defs><style>.a{fill:#ef8a3c;}.b{fill:#d37b34;}.c{fill:#abbb00;}.d{fill:#bccf01;}.e,.f,.l,.m{fill:none;stroke-miterlimit:10;}.e,.m{stroke:#ef8a3c;}.e,.f{stroke-width:2.43px;}.f,.l{stroke:#d37b34;}.g{fill:#768e16;}.h{fill:#839d16;}.i{fill:#e5b337;}.j{fill:#8e9c00;}.k{fill:#b9ce0f;}.l{stroke-width:2.017px;}.m{stroke-width:2.007px;}.n{fill:#fec634;}.o{fill:#02b1f4;}.p{fill:#9d6b2e;}.q{opacity:0.29;isolation:isolate;}.r{fill:#f0f4dd;}.s{fill:#e2e1c8;}.t{fill:#b16a33;}.u{fill:#7a7452;}</style></defs><title>SimplifiedEco</title><rect class="a" x="292.713" y="99.33" width="10.589" height="93.447"/><rect class="b" x="299.565" y="99.33" width="6.853" height="93.447"/><path class="c" d="M375.061,245.445l-14.834-25.692a7.261,7.261,0,0,0,4.037-9.442,7.373,7.373,0,0,0-.449-.925l-12.422-21.515h2.866a3.684,3.684,0,0,0,3.191-5.527L332.593,139.3a3.684,3.684,0,0,0-6.381,0l-24.854,43.053a3.683,3.683,0,0,0,3.19,5.526H306.9L294.48,209.391a7.262,7.262,0,0,0,3.814,10.456l-14.782,25.6a7.534,7.534,0,0,0,6.53,11.306h78.5a7.536,7.536,0,0,0,6.521-11.311Z" transform="translate(-29.691 -101)"/><path class="d" d="M329.257,137.458a3.643,3.643,0,0,0-3.045,1.833l-24.854,43.053a3.685,3.685,0,0,0,3.19,5.527H306.9L294.48,209.386a7.262,7.262,0,0,0,3.814,10.456l-14.782,25.6a7.536,7.536,0,0,0,6.53,11.307h39.221Z" transform="translate(-29.691 -101)"/><path class="e" d="M249.691,239.912s-20.344,1.62-24.7-13.365" transform="translate(-29.691 -101)"/><path class="e" d="M251.315,194.553s-24.014,1.62-29.16-13.365" transform="translate(-29.691 -101)"/><path class="f" d="M258.9,164.832s38.446,2.189,46.687-18.065" transform="translate(-29.691 -101)"/><path class="f" d="M260.922,214.643s27.773,2.19,33.723-18.066" transform="translate(-29.691 -101)"/><path class="g" d="M293.229,132.994H326.7a8.707,8.707,0,0,1,8.708,8.707h0a8.707,8.707,0,0,1-8.708,8.707H293.229a8.708,8.708,0,0,1-8.708-8.707h0A8.708,8.708,0,0,1,293.229,132.994Z" transform="translate(-29.691 -101)"/><path class="g" d="M292.014,181.188h33.468a8.708,8.708,0,0,1,8.708,8.707h0a8.708,8.708,0,0,1-8.708,8.708H292.014a8.708,8.708,0,0,1-8.708-8.708h0A8.708,8.708,0,0,1,292.014,181.188Z" transform="translate(-29.691 -101)"/><path class="h" d="M198.461,167.824h33.468a8.708,8.708,0,0,1,8.708,8.707h0a8.708,8.708,0,0,1-8.708,8.707H198.461a8.708,8.708,0,0,1-8.708-8.707h0A8.708,8.708,0,0,1,198.461,167.824Z" transform="translate(-29.691 -101)"/><path class="h" d="M198.461,211.157h33.468a8.708,8.708,0,0,1,8.708,8.708h0a8.708,8.708,0,0,1-8.708,8.707H198.461a8.708,8.708,0,0,1-8.708-8.707h0A8.708,8.708,0,0,1,198.461,211.157Z" transform="translate(-29.691 -101)"/><path class="i" d="M63.193,307.951H446.72a7.087,7.087,0,0,1,7.088,7.087h0a7.087,7.087,0,0,1-7.088,7.088H63.193a7.087,7.087,0,0,1-7.088-7.088h0A7.087,7.087,0,0,1,63.193,307.951Z" transform="translate(-29.691 -101)"/><path class="j" d="M46.588,293.776H462.111a7.088,7.088,0,0,1,7.087,7.088h0a7.087,7.087,0,0,1-7.087,7.087H46.588a7.087,7.087,0,0,1-7.087-7.087h0A7.088,7.088,0,0,1,46.588,293.776Z" transform="translate(-29.691 -101)"/><rect class="a" x="45.302" y="151.248" width="4.585" height="41.529"/><rect class="b" x="48.348" y="151.248" width="3.046" height="41.529"/><circle class="c" cx="78.177" cy="240.204" r="24.502" transform="translate(-195.013 206.416) rotate(-87.403)"/><path class="k" d="M78.039,215.7a24.5,24.5,0,0,0,0,49Z" transform="translate(-29.691 -101)"/><path class="e" d="M76.355,273.118s-28.349,1.621-34.425-13.364" transform="translate(-29.691 -101)"/><circle class="k" cx="12.194" cy="151.512" r="12.194"/><rect class="a" x="96.072" y="132.027" width="6.446" height="60.749"/><rect class="b" x="100.528" y="132.027" width="4.455" height="60.749"/><circle class="g" cx="100.73" cy="114.41" r="35.842"/><path class="h" d="M130.219,179.571a35.84,35.84,0,0,0,0,71.679Z" transform="translate(-29.691 -101)"/><rect class="a" x="161.789" y="117.244" width="7.983" height="75.532"/><rect class="b" x="167.328" y="117.244" width="5.539" height="75.532"/><path class="c" d="M234.042,254.711l-11.988-20.767a5.866,5.866,0,0,0,2.9-8.382l-10.039-17.39h2.317a2.979,2.979,0,0,0,2.579-4.468l-20.091-34.8a2.979,2.979,0,0,0-5.158,0l-20.091,34.8a2.978,2.978,0,0,0,2.576,4.47h1.9l-10.039,17.39a5.872,5.872,0,0,0,2.153,8.02,5.773,5.773,0,0,0,.93.432l-11.949,20.7a6.09,6.09,0,0,0,5.275,9.136h63.451a6.091,6.091,0,0,0,5.273-9.136Z" transform="translate(-29.691 -101)"/><path class="d" d="M197.019,167.426a2.94,2.94,0,0,0-2.461,1.481l-20.091,34.8a2.979,2.979,0,0,0,2.578,4.471h1.9l-10.039,17.39a5.872,5.872,0,0,0,2.153,8.02,5.773,5.773,0,0,0,.93.432l-11.949,20.7a6.09,6.09,0,0,0,5.275,9.136h31.7Z" transform="translate(-29.691 -101)"/><rect class="a" x="384.442" y="158.308" width="3.656" height="34.467"/><rect class="b" x="386.97" y="158.308" width="2.527" height="34.467"/><circle class="k" cx="386.854" cy="148.313" r="20.336"/><path class="c" d="M416.661,228.979a20.335,20.335,0,0,1,0,40.669Z" transform="translate(-29.691 -101)"/><path class="l" d="M418.058,276.634s23.53,1.344,28.572-11.093" transform="translate(-29.691 -101)"/><circle class="c" cx="416.975" cy="158.528" r="10.121"/><path class="m" d="M414.93,282.842s-19.346,1.62-23.49-13.365" transform="translate(-29.691 -101)"/><circle class="k" cx="361.704" cy="160.017" r="12.194"/><rect class="a" x="217.789" y="15.389" width="10.463" height="177.387"/><rect class="b" x="224.641" y="15.389" width="6.853" height="177.387"/><path class="g" d="M229.443,101h49.813a12.96,12.96,0,0,1,12.96,12.96h0a12.959,12.959,0,0,1-12.96,12.959H229.443a12.96,12.96,0,0,1-12.961-12.959h0A12.96,12.96,0,0,1,229.443,101Z" transform="translate(-29.691 -101)"/><path class="h" d="M254.147,101h-24.7a13,13,0,0,0-12.963,12.963h0a13,13,0,0,0,12.963,12.963h24.7Z" transform="translate(-29.691 -101)"/><path class="e" d="M248.477,158.107s-30.35,1.62-36.854-13.366" transform="translate(-29.691 -101)"/><path class="h" d="M183.071,128.944h33.468a8.708,8.708,0,0,1,8.708,8.707h0a8.708,8.708,0,0,1-8.708,8.707H183.071a8.708,8.708,0,0,1-8.708-8.707h0A8.708,8.708,0,0,1,183.071,128.944Z" transform="translate(-29.691 -101)"/><rect class="a" x="330.893" y="122.79" width="7.496" height="69.986"/><rect class="b" x="336.026" y="122.79" width="5.133" height="69.986"/><path class="g" d="M400.022,257.579l-11.111-19.242a5.439,5.439,0,0,0,3.022-7.073,5.508,5.508,0,0,0-.336-.691l-9.3-16.114h2.144a2.759,2.759,0,0,0,2.389-4.139l-18.616-32.244a2.759,2.759,0,0,0-4.776,0L344.818,210.32a2.76,2.76,0,0,0,2.39,4.139h1.769l-9.3,16.114a5.439,5.439,0,0,0,1.994,7.43,5.356,5.356,0,0,0,.862.4l-11.071,19.175a5.644,5.644,0,0,0,4.888,8.465h58.791a5.645,5.645,0,0,0,4.884-8.465Z" transform="translate(-29.691 -101)"/><path class="h" d="M365.717,176.7a2.727,2.727,0,0,0-2.28,1.373L344.82,210.32a2.76,2.76,0,0,0,2.39,4.139h1.767l-9.3,16.114a5.439,5.439,0,0,0,1.994,7.43,5.356,5.356,0,0,0,.862.4l-11.071,19.175a5.644,5.644,0,0,0,4.888,8.465h29.374Z" transform="translate(-29.691 -101)"/><path class="n" d="M56.1,314.834H453.819a7.1,7.1,0,0,1,7.077-6.885H49.018A7.1,7.1,0,0,1,56.1,314.834Z" transform="translate(-29.691 -101)"/><path class="o" d="M441.864,322.126H67.243a7.1,7.1,0,0,1,7.077,6.885h.012v.363a6.946,6.946,0,0,0,6.921,6.926h47.141a7.109,7.109,0,0,1,7.087,7.088h0a7.107,7.107,0,0,1-7.087,7.087H106.122a7.088,7.088,0,0,0-.166,14.175h73.875a7.087,7.087,0,0,1,0,14.174h-55.89a7.088,7.088,0,0,0,0,14.176H384.352a7.088,7.088,0,1,0,0-14.176h-57.5a7.087,7.087,0,0,1,0-14.174H428.9a7.088,7.088,0,0,0,0-14.175H363.292a7.107,7.107,0,0,1-7.087-7.087h0a7.109,7.109,0,0,1,7.087-7.088h64.556a6.946,6.946,0,0,0,6.926-6.926v-.363h.012A7.1,7.1,0,0,1,441.864,322.126Z" transform="translate(-29.691 -101)"/><polygon class="p" points="205.421 253.93 200.561 254.335 205.421 251.5 205.421 253.93"/><ellipse class="q" cx="220.405" cy="267.092" rx="14.58" ry="3.443"/><path class="r" d="M263.867,360.2s-3.645,8.5-6.885,9.314-14.58,0-14.58,0c-3.571-1.1-4.813-4.694-2.834-11.744-6.158,1.194-8.344-6.891-2.026-7.695a15.184,15.184,0,0,1,5.67,0c3.069.813,4.163,4.236,2.025,8.1C250.669,357.128,257.115,358.324,263.867,360.2Z" transform="translate(-29.691 -101)"/><path class="s" d="M254.957,368.7h-8.5c-2.11-1.35-6.669-.247-7.29-7.695l.81-5.263c-4.016.731-5.111-1.639-5.715-3.844-1.615,2.569.761,6.752,5.311,5.87-1.979,7.05-.737,10.648,2.834,11.744,0,0,11.34.81,14.58,0,1.983-.5,4.115-3.871,5.473-6.418C260.524,364.657,258.191,367.128,254.957,368.7Z" transform="translate(-29.691 -101)"/><path class="t" d="M259.006,363.03q-3.732,2.96-11.744,2.835c-6.238,0-6.238-5.669,0-5.669A19.074,19.074,0,0,1,259.006,363.03Z" transform="translate(-29.691 -101)"/><circle class="u" cx="206.838" cy="252.108" r="1.013"/><polygon class="p" points="266.169 233.276 261.31 233.681 266.169 230.845 266.169 233.276"/><ellipse class="q" cx="281.155" cy="246.438" rx="14.58" ry="3.443"/><path class="r" d="M324.611,339.54s-3.645,8.5-6.885,9.315-14.58,0-14.58,0c-3.572-1.1-4.813-4.693-2.835-11.745-6.157,1.195-8.342-6.891-2.024-7.695a15.221,15.221,0,0,1,5.669,0c3.07.813,4.162,4.237,2.025,8.1C311.417,336.472,317.864,337.669,324.611,339.54Z" transform="translate(-29.691 -101)"/><path class="s" d="M315.706,348.045h-8.5c-2.11-1.351-6.67-.246-7.29-7.695l.81-5.263c-4.015.731-5.112-1.64-5.715-3.844-1.616,2.569.76,6.751,5.31,5.868-1.978,7.052-.737,10.649,2.835,11.745,0,0,11.34.81,14.579,0,1.984-.5,4.116-3.871,5.474-6.417C321.273,344,318.94,346.474,315.706,348.045Z" transform="translate(-29.691 -101)"/><path class="t" d="M319.756,342.376q-3.735,2.958-11.745,2.835c-6.238,0-6.238-5.671,0-5.671A19.078,19.078,0,0,1,319.756,342.376Z" transform="translate(-29.691 -101)"/><circle class="u" cx="267.587" cy="231.453" r="1.013"/><polygon class="p" points="149.127 232.466 144.267 232.871 149.127 230.035 149.127 232.466"/><ellipse class="q" cx="164.111" cy="245.628" rx="14.58" ry="3.443"/><path class="r" d="M207.573,338.73s-3.645,8.5-6.885,9.315-14.58,0-14.58,0c-3.571-1.1-4.813-4.693-2.835-11.745-6.158,1.195-8.343-6.89-2.025-7.7a15.227,15.227,0,0,1,5.67,0c3.069.812,4.163,4.236,2.025,8.1C194.375,335.664,200.82,336.862,207.573,338.73Z" transform="translate(-29.691 -101)"/><path class="s" d="M198.663,347.235h-8.505c-2.111-1.351-6.669-.246-7.29-7.7l.81-5.263c-4.016.731-5.111-1.64-5.716-3.844-1.615,2.569.762,6.752,5.311,5.869-1.978,7.051-.736,10.648,2.835,11.744,0,0,11.34.81,14.58,0,1.982-.5,4.115-3.871,5.474-6.417C204.23,343.2,201.9,345.664,198.663,347.235Z" transform="translate(-29.691 -101)"/><path class="t" d="M202.712,341.566q-3.732,2.958-11.745,2.834c-6.237,0-6.237-5.67,0-5.67A19.077,19.077,0,0,1,202.712,341.566Z" transform="translate(-29.691 -101)"/><circle class="u" cx="150.544" cy="230.643" r="1.013"/></svg>